<svg xmlns="http://www.w3.org/2000/svg" xmlns:xlink="http://www.w3.org/1999/xlink" width="500" zoomAndPan="magnify" viewBox="0 0 375 374.999991" height="500" preserveAspectRatio="xMidYMid meet" version="1.0"><defs><g/><clipPath id="ede69bf8ee"><path d="M 163.289062 155.277344 L 226.289062 155.277344 L 226.289062 219.777344 L 163.289062 219.777344 Z M 163.289062 155.277344 " clip-rule="nonzero"/></clipPath><clipPath id="d390506aa7"><path d="M 196.09375 154.585938 L 259 154.585938 L 259 219.085938 L 196.09375 219.085938 Z M 196.09375 154.585938 " clip-rule="nonzero"/></clipPath><clipPath id="ed6cef6178"><path d="M 100.535156 154.585938 L 163.535156 154.585938 L 163.535156 219.085938 L 100.535156 219.085938 Z M 100.535156 154.585938 " clip-rule="nonzero"/></clipPath></defs><g fill="#000000" fill-opacity="1"><g transform="translate(108.309303, 207.808213)"><g><path d="M 4.96875 0 L 4.96875 -42.484375 L 19.625 -42.484375 L 19.625 -38.015625 L 19.796875 -38.015625 C 23.597656 -41.816406 27.65625 -43.71875 31.96875 -43.71875 C 34.0625 -43.71875 36.144531 -43.441406 38.21875 -42.890625 C 40.289062 -42.335938 42.273438 -41.484375 44.171875 -40.328125 C 46.078125 -39.171875 47.625 -37.53125 48.8125 -35.40625 C 50 -33.28125 50.59375 -30.804688 50.59375 -27.984375 L 50.59375 0 L 35.9375 0 L 35.9375 -24.015625 C 35.9375 -26.222656 35.234375 -28.15625 33.828125 -29.8125 C 32.421875 -31.46875 30.585938 -32.296875 28.328125 -32.296875 C 26.117188 -32.296875 24.113281 -31.4375 22.3125 -29.71875 C 20.519531 -28.007812 19.625 -26.109375 19.625 -24.015625 L 19.625 0 Z M 4.96875 0 "/></g></g></g><g fill="#000000" fill-opacity="1"><g transform="translate(156.583638, 207.808213)"><g><path d="M 7.859375 -5.25 C 3.890625 -9.59375 1.90625 -14.910156 1.90625 -21.203125 C 1.90625 -27.492188 3.890625 -32.816406 7.859375 -37.171875 C 11.835938 -41.535156 16.890625 -43.71875 23.015625 -43.71875 C 28.648438 -43.71875 33.289062 -41.953125 36.9375 -38.421875 L 36.9375 -42.484375 L 51.59375 -42.484375 L 51.59375 0 L 37.09375 0 L 37.09375 -4.796875 L 36.9375 -4.796875 C 33.289062 -0.765625 28.648438 1.25 23.015625 1.25 C 16.890625 1.25 11.835938 -0.914062 7.859375 -5.25 Z M 20.328125 -28.40625 C 18.421875 -26.53125 17.46875 -24.128906 17.46875 -21.203125 C 17.46875 -18.273438 18.378906 -15.882812 20.203125 -14.03125 C 22.023438 -12.1875 24.425781 -11.265625 27.40625 -11.265625 C 30.28125 -11.265625 32.640625 -12.203125 34.484375 -14.078125 C 36.335938 -15.953125 37.265625 -18.328125 37.265625 -21.203125 C 37.265625 -24.128906 36.3125 -26.53125 34.40625 -28.40625 C 32.5 -30.28125 30.164062 -31.21875 27.40625 -31.21875 C 24.59375 -31.21875 22.234375 -30.28125 20.328125 -28.40625 Z M 20.328125 -28.40625 "/></g></g></g><g fill="#000000" fill-opacity="1"><g transform="translate(206.679677, 207.808213)"><g><path d="M 4.96875 0 L 4.96875 -42.484375 L 19.625 -42.484375 L 19.625 -38.015625 L 19.796875 -38.015625 C 23.597656 -41.816406 27.65625 -43.71875 31.96875 -43.71875 C 34.0625 -43.71875 36.144531 -43.441406 38.21875 -42.890625 C 40.289062 -42.335938 42.273438 -41.484375 44.171875 -40.328125 C 46.078125 -39.171875 47.625 -37.53125 48.8125 -35.40625 C 50 -33.28125 50.59375 -30.804688 50.59375 -27.984375 L 50.59375 0 L 35.9375 0 L 35.9375 -24.015625 C 35.9375 -26.222656 35.234375 -28.15625 33.828125 -29.8125 C 32.421875 -31.46875 30.585938 -32.296875 28.328125 -32.296875 C 26.117188 -32.296875 24.113281 -31.4375 22.3125 -29.71875 C 20.519531 -28.007812 19.625 -26.109375 19.625 -24.015625 L 19.625 0 Z M 4.96875 0 "/></g></g></g><g fill="#000000" fill-opacity="1"><g transform="translate(254.954012, 207.808213)"><g><path d="M 14.40625 -17.71875 C 17.0625 -17.71875 19.3125 -16.789062 21.15625 -14.9375 C 23.007812 -13.09375 23.9375 -10.847656 23.9375 -8.203125 C 23.9375 -5.609375 23.007812 -3.382812 21.15625 -1.53125 C 19.3125 0.320312 17.0625 1.25 14.40625 1.25 C 11.8125 1.25 9.585938 0.320312 7.734375 -1.53125 C 5.890625 -3.382812 4.96875 -5.609375 4.96875 -8.203125 C 4.96875 -10.847656 5.890625 -13.09375 7.734375 -14.9375 C 9.585938 -16.789062 11.8125 -17.71875 14.40625 -17.71875 Z M 14.40625 -17.71875 "/></g></g></g><g clip-path="url(#ede69bf8ee)"><path fill="#e4e1da" d="M 226.023438 186.996094 L 216.773438 186.996094 C 200.933594 183.570312 197.410156 180.035156 193.984375 164.171875 L 193.984375 155.28125 L 192.8125 155.28125 L 192.8125 164.265625 C 189.390625 180.046875 185.851562 183.578125 170.042969 186.996094 L 163.292969 186.996094 L 163.292969 188.167969 L 170.042969 188.167969 C 185.851562 191.589844 189.390625 195.117188 192.8125 210.898438 L 192.8125 219.71875 L 193.984375 219.71875 L 193.984375 210.992188 C 197.410156 195.128906 200.933594 191.59375 216.773438 188.167969 L 226.023438 188.167969 Z M 226.023438 186.996094 " fill-opacity="1" fill-rule="nonzero"/></g><g clip-path="url(#d390506aa7)"><path fill="#e4e1da" d="M 258.832031 186.304688 L 249.578125 186.304688 C 233.738281 182.878906 230.214844 179.34375 226.789062 163.480469 L 226.789062 154.589844 L 225.617188 154.589844 L 225.617188 163.574219 C 222.195312 179.355469 218.65625 182.882812 202.847656 186.304688 L 196.097656 186.304688 L 196.097656 187.476562 L 202.847656 187.476562 C 218.65625 190.898438 222.195312 194.421875 225.617188 210.207031 L 225.617188 219.027344 L 226.789062 219.027344 L 226.789062 210.300781 C 230.214844 194.4375 233.738281 190.902344 249.578125 187.476562 L 258.832031 187.476562 Z M 258.832031 186.304688 " fill-opacity="1" fill-rule="nonzero"/></g><g clip-path="url(#ed6cef6178)"><path fill="#e4e1da" d="M 163.273438 186.304688 L 154.019531 186.304688 C 138.183594 182.878906 134.660156 179.34375 131.230469 163.480469 L 131.230469 154.589844 L 130.0625 154.589844 L 130.0625 163.574219 C 126.640625 179.355469 123.101562 182.882812 107.292969 186.304688 L 100.542969 186.304688 L 100.542969 187.476562 L 107.292969 187.476562 C 123.101562 190.898438 126.640625 194.421875 130.0625 210.207031 L 130.0625 219.027344 L 131.230469 219.027344 L 131.230469 210.300781 C 134.660156 194.4375 138.183594 190.902344 154.019531 187.476562 L 163.273438 187.476562 Z M 163.273438 186.304688 " fill-opacity="1" fill-rule="nonzero"/></g></svg>