<svg xmlns="http://www.w3.org/2000/svg" xmlns:xlink="http://www.w3.org/1999/xlink" width="500" zoomAndPan="magnify" viewBox="0 0 375 374.999991" height="500" preserveAspectRatio="xMidYMid meet" version="1.0"><defs><g/><clipPath id="7e4fc1a2b0"><path d="M 176.292969 176.101562 L 198.707031 176.101562 L 198.707031 198.898438 L 176.292969 198.898438 Z M 176.292969 176.101562 " clip-rule="nonzero"/></clipPath></defs><g fill="#000000" fill-opacity="1"><g transform="translate(147.073164, 206.249986)"><g><path d="M 24.421875 0 L 16.296875 0 L 16.296875 -31.140625 C 16.296875 -31.453125 16.1875 -31.722656 15.96875 -31.953125 C 15.757812 -32.191406 15.503906 -32.3125 15.203125 -32.3125 L 12.0625 -32.3125 C 11.75 -32.3125 11.488281 -32.191406 11.28125 -31.953125 C 11.070312 -31.722656 10.96875 -31.453125 10.96875 -31.140625 L 10.96875 0 L 2.84375 0 L 2.84375 -30.453125 C 2.84375 -35.554688 5.238281 -38.109375 10.03125 -38.109375 L 17.21875 -38.109375 C 22.019531 -38.109375 24.421875 -35.554688 24.421875 -30.453125 Z M 24.421875 0 "/></g></g></g><g fill="#000000" fill-opacity="1"><g transform="translate(175.209881, 206.249986)"><g/></g></g><g fill="#000000" fill-opacity="1"><g transform="translate(188.085103, 206.249986)"><g/></g></g><g fill="#000000" fill-opacity="1"><g transform="translate(200.967691, 206.249986)"><g><path d="M 24.421875 0 L 16.296875 0 L 16.296875 -31.140625 C 16.296875 -31.453125 16.1875 -31.722656 15.96875 -31.953125 C 15.757812 -32.191406 15.503906 -32.3125 15.203125 -32.3125 L 12.0625 -32.3125 C 11.75 -32.3125 11.488281 -32.191406 11.28125 -31.953125 C 11.070312 -31.722656 10.96875 -31.453125 10.96875 -31.140625 L 10.96875 0 L 2.84375 0 L 2.84375 -30.453125 C 2.84375 -35.554688 5.238281 -38.109375 10.03125 -38.109375 L 17.21875 -38.109375 C 22.019531 -38.109375 24.421875 -35.554688 24.421875 -30.453125 Z M 24.421875 0 "/></g></g></g><g clip-path="url(#7e4fc1a2b0)"><path fill="#000000" d="M 176.292969 176.101562 L 198.707031 176.101562 L 198.707031 198.867188 L 176.292969 198.867188 Z M 176.292969 176.101562 " fill-opacity="1" fill-rule="nonzero"/></g></svg>