<svg xmlns="http://www.w3.org/2000/svg" xmlns:xlink="http://www.w3.org/1999/xlink" width="500" zoomAndPan="magnify" viewBox="0 0 375 374.999991" height="500" preserveAspectRatio="xMidYMid meet" version="1.0"><defs><g/><clipPath id="8d6c1eba8b"><path d="M 205.074219 168.296875 L 214.34375 168.296875 L 214.34375 180.890625 L 205.074219 180.890625 Z M 205.074219 168.296875 " clip-rule="nonzero"/></clipPath><clipPath id="ec4a107228"><path d="M 160.964844 168.296875 L 170.234375 168.296875 L 170.234375 180.890625 L 160.964844 180.890625 Z M 160.964844 168.296875 " clip-rule="nonzero"/></clipPath></defs><g fill="#000000" fill-opacity="1"><g transform="translate(145.306562, 206.249986)"><g><path d="M 24.421875 0 L 16.296875 0 L 16.296875 -31.140625 C 16.296875 -31.453125 16.1875 -31.722656 15.96875 -31.953125 C 15.757812 -32.191406 15.503906 -32.3125 15.203125 -32.3125 L 12.0625 -32.3125 C 11.75 -32.3125 11.488281 -32.191406 11.28125 -31.953125 C 11.070312 -31.722656 10.96875 -31.453125 10.96875 -31.140625 L 10.96875 0 L 2.84375 0 L 2.84375 -30.453125 C 2.84375 -35.554688 5.238281 -38.109375 10.03125 -38.109375 L 17.21875 -38.109375 C 22.019531 -38.109375 24.421875 -35.554688 24.421875 -30.453125 Z M 24.421875 0 "/></g></g></g><g fill="#000000" fill-opacity="1"><g transform="translate(173.434767, 206.249986)"><g><path d="M 17.8125 -38.109375 C 22.601562 -38.109375 25 -35.554688 25 -30.453125 L 25 0 L 16.875 0 L 16.875 -12.59375 L 11.015625 -12.59375 L 11.015625 0 L 2.90625 0 L 2.90625 -30.453125 C 2.90625 -35.554688 5.300781 -38.109375 10.09375 -38.109375 Z M 11.015625 -18.84375 L 16.875 -18.84375 L 16.875 -31.4375 C 16.875 -31.75 16.765625 -32.019531 16.546875 -32.25 C 16.335938 -32.476562 16.082031 -32.59375 15.78125 -32.59375 L 12.125 -32.59375 C 11.8125 -32.59375 11.546875 -32.476562 11.328125 -32.25 C 11.117188 -32.019531 11.015625 -31.75 11.015625 -31.4375 Z M 11.015625 -18.84375 "/></g></g></g><g fill="#000000" fill-opacity="1"><g transform="translate(202.7229, 206.249986)"><g><path d="M 24.421875 0 L 16.296875 0 L 16.296875 -31.140625 C 16.296875 -31.453125 16.1875 -31.722656 15.96875 -31.953125 C 15.757812 -32.191406 15.503906 -32.3125 15.203125 -32.3125 L 12.0625 -32.3125 C 11.75 -32.3125 11.488281 -32.191406 11.28125 -31.953125 C 11.070312 -31.722656 10.96875 -31.453125 10.96875 -31.140625 L 10.96875 0 L 2.84375 0 L 2.84375 -30.453125 C 2.84375 -35.554688 5.238281 -38.109375 10.03125 -38.109375 L 17.21875 -38.109375 C 22.019531 -38.109375 24.421875 -35.554688 24.421875 -30.453125 Z M 24.421875 0 "/></g></g></g><g clip-path="url(#8d6c1eba8b)"><path fill="#ffffff" d="M 205.074219 168.296875 L 214.34375 168.296875 L 214.34375 180.898438 L 205.074219 180.898438 Z M 205.074219 168.296875 " fill-opacity="1" fill-rule="nonzero"/></g><g clip-path="url(#ec4a107228)"><path fill="#ffffff" d="M 160.964844 168.296875 L 170.234375 168.296875 L 170.234375 180.898438 L 160.964844 180.898438 Z M 160.964844 168.296875 " fill-opacity="1" fill-rule="nonzero"/></g></svg>