<svg xmlns="http://www.w3.org/2000/svg" xmlns:xlink="http://www.w3.org/1999/xlink" width="500" zoomAndPan="magnify" viewBox="0 0 375 374.999991" height="500" preserveAspectRatio="xMidYMid meet" version="1.0"><defs><g/></defs><g fill="#000000" fill-opacity="1"><g transform="translate(97.158711, 187.401784)"><g><path d="M 39.03125 -31.21875 L 39.03125 0 L 31.21875 0 L 31.21875 -31.21875 L 7.8125 -31.21875 L 7.8125 0 L 0 0 L 0 -39.03125 L 31.21875 -39.03125 L 31.21875 -31.21875 Z M 39.03125 -31.21875 "/></g></g></g><g fill="#000000" fill-opacity="1"><g transform="translate(160.167547, 187.401784)"><g><path d="M 7.8125 -23.4375 L 31.21875 -23.4375 L 31.21875 -31.21875 L 7.8125 -31.21875 L 7.8125 -39.03125 L 31.21875 -39.03125 L 31.21875 -31.21875 L 39.03125 -31.21875 L 39.03125 0 L 7.8125 0 L 7.8125 -7.8125 L 0 -7.8125 L 0 -15.625 L 7.8125 -15.625 Z M 7.890625 -15.625 L 7.890625 -7.8125 L 31.21875 -7.8125 L 31.21875 -15.625 Z M 7.8125 -23.484375 L 0 -23.484375 L 0 -31.21875 L 7.8125 -31.21875 Z M 7.8125 -23.484375 "/></g></g></g><g fill="#000000" fill-opacity="1"><g transform="translate(223.176383, 187.401784)"><g><path d="M 39.03125 -31.21875 L 39.03125 0 L 31.21875 0 L 31.21875 -31.21875 L 7.8125 -31.21875 L 7.8125 0 L 0 0 L 0 -39.03125 L 31.21875 -39.03125 L 31.21875 -31.21875 Z M 39.03125 -31.21875 "/></g></g></g></svg>