<svg xmlns="http://www.w3.org/2000/svg" xmlns:xlink="http://www.w3.org/1999/xlink" width="500" zoomAndPan="magnify" viewBox="0 0 375 374.999991" height="500" preserveAspectRatio="xMidYMid meet" version="1.0"><defs><g/><clipPath id="b66314e6d1"><path d="M 176.292969 176.101562 L 198.707031 176.101562 L 198.707031 198.898438 L 176.292969 198.898438 Z M 176.292969 176.101562 " clip-rule="nonzero"/></clipPath></defs><g fill="#000000" fill-opacity="1"><g transform="translate(126.637226, 202.724987)"><g><path d="M 31.21875 -31.21875 L 31.21875 0 L 23.40625 0 L 23.40625 -31.21875 L 7.8125 -31.21875 L 7.8125 0 L 0 0 L 0 -39.03125 L 23.40625 -39.03125 L 23.40625 -31.21875 Z M 31.21875 -31.21875 "/></g></g></g><g fill="#000000" fill-opacity="1"><g transform="translate(181.832587, 202.724987)"><g/></g></g><g fill="#000000" fill-opacity="1"><g transform="translate(213.587496, 202.724987)"><g><path d="M 31.21875 -31.21875 L 31.21875 0 L 23.40625 0 L 23.40625 -31.21875 L 7.8125 -31.21875 L 7.8125 0 L 0 0 L 0 -39.03125 L 23.40625 -39.03125 L 23.40625 -31.21875 Z M 31.21875 -31.21875 "/></g></g></g><g clip-path="url(#b66314e6d1)"><path fill="#000000" d="M 176.292969 176.101562 L 198.707031 176.101562 L 198.707031 198.867188 L 176.292969 198.867188 Z M 176.292969 176.101562 " fill-opacity="1" fill-rule="nonzero"/></g></svg>