<svg xmlns="http://www.w3.org/2000/svg" xmlns:xlink="http://www.w3.org/1999/xlink" width="500" zoomAndPan="magnify" viewBox="0 0 375 374.999991" height="500" preserveAspectRatio="xMidYMid meet" version="1.0"><defs><g/></defs><g fill="#000000" fill-opacity="1"><g transform="translate(85.475118, 188.901842)"><g><path d="M 57.21875 0 L 57.21875 -52.0625 L 5.234375 -52.0625 L 5.234375 0 L 15.609375 0 L 15.609375 -41.609375 L 46.84375 -41.609375 L 46.84375 0 Z M 57.21875 0 "/></g></g></g><g fill="#000000" fill-opacity="1"><g transform="translate(156.274531, 188.901842)"><g><path d="M 57.21875 0 L 57.21875 -52.0625 L 5.234375 -52.0625 L 5.234375 0 L 15.609375 0 L 15.609375 -20.84375 L 46.84375 -20.84375 L 46.84375 0 Z M 46.84375 -31.21875 L 15.609375 -31.21875 L 15.609375 -41.609375 L 46.84375 -41.609375 Z M 46.84375 -31.21875 "/></g></g></g><g fill="#000000" fill-opacity="1"><g transform="translate(227.073943, 188.901842)"><g><path d="M 57.21875 0 L 57.21875 -52.0625 L 5.234375 -52.0625 L 5.234375 0 L 15.609375 0 L 15.609375 -41.609375 L 46.84375 -41.609375 L 46.84375 0 Z M 57.21875 0 "/></g></g></g></svg>