<svg xmlns="http://www.w3.org/2000/svg" xmlns:xlink="http://www.w3.org/1999/xlink" width="500" zoomAndPan="magnify" viewBox="0 0 375 374.999991" height="500" preserveAspectRatio="xMidYMid meet" version="1.0"><defs><g/><clipPath id="15bc65f0a5"><path d="M 166.953125 178.910156 L 181.871094 178.910156 L 181.871094 204.453125 L 166.953125 204.453125 Z M 166.953125 178.910156 " clip-rule="nonzero"/></clipPath><clipPath id="be98222faf"><path d="M 169 173 L 180 173 L 180 205 L 169 205 Z M 169 173 " clip-rule="nonzero"/></clipPath><clipPath id="2d0156ab19"><path d="M 164.082031 178.265625 L 177.566406 173.65625 L 186.546875 199.910156 L 173.0625 204.523438 Z M 164.082031 178.265625 " clip-rule="nonzero"/></clipPath><clipPath id="7977691b8f"><path d="M 164.082031 178.265625 L 177.566406 173.65625 L 186.546875 199.910156 L 173.0625 204.523438 Z M 164.082031 178.265625 " clip-rule="nonzero"/></clipPath><clipPath id="7bfecad5ae"><path d="M 169 175 L 175 175 L 175 205 L 169 205 Z M 169 175 " clip-rule="nonzero"/></clipPath><clipPath id="e7db84ca3e"><path d="M 164.082031 178.265625 L 177.566406 173.65625 L 186.546875 199.910156 L 173.0625 204.523438 Z M 164.082031 178.265625 " clip-rule="nonzero"/></clipPath><clipPath id="ad573db782"><path d="M 164.082031 178.265625 L 177.566406 173.65625 L 186.546875 199.910156 L 173.0625 204.523438 Z M 164.082031 178.265625 " clip-rule="nonzero"/></clipPath></defs><g fill="#000000" fill-opacity="1"><g transform="translate(99.619735, 204.453336)"><g><path d="M 20.65625 -1.046875 C 19.894531 -0.566406 18.96875 -0.203125 17.875 0.046875 C 16.78125 0.296875 15.617188 0.421875 14.390625 0.421875 C 11.023438 0.421875 8.441406 -0.398438 6.640625 -2.046875 C 4.835938 -3.691406 3.9375 -6.144531 3.9375 -9.40625 L 3.9375 -18.03125 L 0.1875 -18.03125 L 0.1875 -24.78125 L 3.9375 -24.78125 L 3.9375 -31.46875 L 12.953125 -31.46875 L 12.953125 -24.78125 L 18.84375 -24.78125 L 18.84375 -18.03125 L 12.953125 -18.03125 L 12.953125 -9.5 C 12.953125 -8.570312 13.195312 -7.847656 13.6875 -7.328125 C 14.1875 -6.804688 14.847656 -6.546875 15.671875 -6.546875 C 16.710938 -6.546875 17.628906 -6.816406 18.421875 -7.359375 Z M 20.65625 -1.046875 "/></g></g></g><g fill="#000000" fill-opacity="1"><g transform="translate(115.996743, 204.453336)"><g><path d="M 19.65625 -26.15625 C 22.851562 -26.15625 25.421875 -25.203125 27.359375 -23.296875 C 29.304688 -21.398438 30.28125 -18.539062 30.28125 -14.71875 L 30.28125 0 L 21.265625 0 L 21.265625 -13.25 C 21.265625 -16.757812 19.859375 -18.515625 17.046875 -18.515625 C 15.492188 -18.515625 14.25 -18.003906 13.3125 -16.984375 C 12.382812 -15.972656 11.921875 -14.457031 11.921875 -12.4375 L 11.921875 0 L 2.890625 0 L 2.890625 -35.21875 L 11.921875 -35.21875 L 11.921875 -23.359375 C 12.898438 -24.273438 14.050781 -24.96875 15.375 -25.4375 C 16.707031 -25.914062 18.132812 -26.15625 19.65625 -26.15625 Z M 19.65625 -26.15625 "/></g></g></g><g fill="#000000" fill-opacity="1"><g transform="translate(144.193692, 204.453336)"><g><path d="M 29.953125 -25.734375 L 29.953125 0 L 21.359375 0 L 21.359375 -2.75 C 20.410156 -1.707031 19.269531 -0.914062 17.9375 -0.375 C 16.613281 0.15625 15.207031 0.421875 13.71875 0.421875 C 10.394531 0.421875 7.742188 -0.554688 5.765625 -2.515625 C 3.785156 -4.472656 2.796875 -7.414062 2.796875 -11.34375 L 2.796875 -25.734375 L 11.8125 -25.734375 L 11.8125 -12.8125 C 11.8125 -10.882812 12.175781 -9.476562 12.90625 -8.59375 C 13.632812 -7.707031 14.695312 -7.265625 16.09375 -7.265625 C 17.519531 -7.265625 18.679688 -7.757812 19.578125 -8.75 C 20.484375 -9.75 20.9375 -11.28125 20.9375 -13.34375 L 20.9375 -25.734375 Z M 29.953125 -25.734375 "/></g></g></g><g fill="#000000" fill-opacity="1"><g transform="translate(172.200759, 204.453336)"><g><path d="M 19.65625 -26.15625 C 22.851562 -26.15625 25.421875 -25.203125 27.359375 -23.296875 C 29.304688 -21.398438 30.28125 -18.539062 30.28125 -14.71875 L 30.28125 0 L 21.265625 0 L 21.265625 -13.25 C 21.265625 -16.757812 19.859375 -18.515625 17.046875 -18.515625 C 15.492188 -18.515625 14.25 -18.003906 13.3125 -16.984375 C 12.382812 -15.972656 11.921875 -14.457031 11.921875 -12.4375 L 11.921875 0 L 2.890625 0 L 2.890625 -25.734375 L 11.484375 -25.734375 L 11.484375 -22.921875 C 12.492188 -23.972656 13.695312 -24.773438 15.09375 -25.328125 C 16.488281 -25.878906 18.007812 -26.15625 19.65625 -26.15625 Z M 19.65625 -26.15625 "/></g></g></g><g fill="#000000" fill-opacity="1"><g transform="translate(200.397712, 204.453336)"><g><path d="M 30.234375 -35.21875 L 30.234375 0 L 21.640625 0 L 21.640625 -2.5625 C 19.960938 -0.570312 17.445312 0.421875 14.09375 0.421875 C 11.75 0.421875 9.613281 -0.117188 7.6875 -1.203125 C 5.757812 -2.296875 4.234375 -3.851562 3.109375 -5.875 C 1.984375 -7.90625 1.421875 -10.25 1.421875 -12.90625 C 1.421875 -15.570312 1.984375 -17.90625 3.109375 -19.90625 C 4.234375 -21.914062 5.757812 -23.457031 7.6875 -24.53125 C 9.613281 -25.613281 11.75 -26.15625 14.09375 -26.15625 C 17.164062 -26.15625 19.539062 -25.269531 21.21875 -23.5 L 21.21875 -35.21875 Z M 16 -6.734375 C 17.550781 -6.734375 18.832031 -7.28125 19.84375 -8.375 C 20.851562 -9.46875 21.359375 -10.976562 21.359375 -12.90625 C 21.359375 -14.8125 20.859375 -16.300781 19.859375 -17.375 C 18.867188 -18.445312 17.582031 -18.984375 16 -18.984375 C 14.414062 -18.984375 13.113281 -18.445312 12.09375 -17.375 C 11.082031 -16.300781 10.578125 -14.8125 10.578125 -12.90625 C 10.578125 -10.976562 11.082031 -9.46875 12.09375 -8.375 C 13.113281 -7.28125 14.414062 -6.734375 16 -6.734375 Z M 16 -6.734375 "/></g></g></g><g fill="#000000" fill-opacity="1"><g transform="translate(228.689603, 204.453336)"><g><path d="M 29.1875 -12.8125 C 29.1875 -12.75 29.140625 -12.003906 29.046875 -10.578125 L 10.34375 -10.578125 C 10.726562 -9.253906 11.460938 -8.234375 12.546875 -7.515625 C 13.640625 -6.804688 15.007812 -6.453125 16.65625 -6.453125 C 17.894531 -6.453125 18.960938 -6.625 19.859375 -6.96875 C 20.765625 -7.320312 21.675781 -7.894531 22.59375 -8.6875 L 27.34375 -3.75 C 24.84375 -0.96875 21.1875 0.421875 16.375 0.421875 C 13.363281 0.421875 10.71875 -0.144531 8.4375 -1.28125 C 6.164062 -2.414062 4.40625 -3.992188 3.15625 -6.015625 C 1.90625 -8.046875 1.28125 -10.34375 1.28125 -12.90625 C 1.28125 -15.4375 1.890625 -17.707031 3.109375 -19.71875 C 4.328125 -21.726562 6.007812 -23.300781 8.15625 -24.4375 C 10.3125 -25.582031 12.734375 -26.15625 15.421875 -26.15625 C 17.984375 -26.15625 20.304688 -25.625 22.390625 -24.5625 C 24.484375 -23.5 26.140625 -21.960938 27.359375 -19.953125 C 28.578125 -17.953125 29.1875 -15.570312 29.1875 -12.8125 Z M 15.46875 -19.75 C 14.082031 -19.75 12.921875 -19.351562 11.984375 -18.5625 C 11.046875 -17.769531 10.453125 -16.691406 10.203125 -15.328125 L 20.75 -15.328125 C 20.488281 -16.691406 19.890625 -17.769531 18.953125 -18.5625 C 18.023438 -19.351562 16.863281 -19.75 15.46875 -19.75 Z M 15.46875 -19.75 "/></g></g></g><g fill="#000000" fill-opacity="1"><g transform="translate(254.323194, 204.453336)"><g><path d="M 11.484375 -22.640625 C 12.398438 -23.816406 13.59375 -24.695312 15.0625 -25.28125 C 16.539062 -25.863281 18.226562 -26.15625 20.125 -26.15625 L 20.125 -18.03125 C 19.300781 -18.132812 18.617188 -18.1875 18.078125 -18.1875 C 16.148438 -18.1875 14.640625 -17.660156 13.546875 -16.609375 C 12.460938 -15.566406 11.921875 -13.96875 11.921875 -11.8125 L 11.921875 0 L 2.890625 0 L 2.890625 -25.734375 L 11.484375 -25.734375 Z M 11.484375 -22.640625 "/></g></g></g><g clip-path="url(#15bc65f0a5)"><path fill="#000000" d="M 166.953125 178.910156 L 181.871094 178.910156 L 181.871094 204.4375 L 166.953125 204.4375 Z M 166.953125 178.910156 " fill-opacity="1" fill-rule="nonzero"/></g><g clip-path="url(#be98222faf)"><g clip-path="url(#2d0156ab19)"><g clip-path="url(#7977691b8f)"><path fill="#ffffff" d="M 170.691406 176.007812 L 177.410156 173.710938 L 175.167969 184.558594 L 179.105469 183.210938 L 173.042969 204.445312 L 173.820312 189.320312 L 169.609375 190.996094 Z M 170.691406 176.007812 " fill-opacity="1" fill-rule="nonzero"/></g></g></g><g clip-path="url(#7bfecad5ae)"><g clip-path="url(#e7db84ca3e)"><g clip-path="url(#ad573db782)"><path fill="#000000" d="M 170.691406 176.007812 L 171.847656 175.609375 L 169.609375 190.996094 Z M 173.042969 204.445312 L 174.632812 189.042969 L 173.820312 189.320312 Z M 173.042969 204.445312 " fill-opacity="1" fill-rule="nonzero"/></g></g></g></svg>