<svg xmlns="http://www.w3.org/2000/svg" xmlns:xlink="http://www.w3.org/1999/xlink" width="500" zoomAndPan="magnify" viewBox="0 0 375 374.999991" height="500" preserveAspectRatio="xMidYMid meet" version="1.0"><defs><g/><clipPath id="5b531bc652"><path d="M 178.851562 180.351562 L 201.265625 180.351562 L 201.265625 203.453125 L 178.851562 203.453125 Z M 178.851562 180.351562 " clip-rule="nonzero"/></clipPath><clipPath id="af0dd95e69"><path d="M 179 180 L 200 180 L 200 211 L 179 211 Z M 179 180 " clip-rule="nonzero"/></clipPath><clipPath id="33c585f737"><path d="M 178.792969 206.492188 L 187.714844 178.539062 L 202.136719 183.144531 L 193.21875 211.09375 Z M 178.792969 206.492188 " clip-rule="nonzero"/></clipPath><clipPath id="e1eb51e411"><path d="M 185.210938 186.582031 L 179.304688 205.078125 C 179.054688 205.867188 179.488281 206.710938 180.277344 206.964844 L 191.789062 210.636719 C 192.578125 210.890625 193.421875 210.453125 193.671875 209.664062 L 199.578125 191.167969 C 199.871094 190.253906 199.785156 189.261719 199.34375 188.40625 L 195.832031 181.597656 C 195.449219 180.859375 194.546875 180.570312 193.808594 180.949219 L 187 184.464844 C 186.144531 184.90625 185.5 185.667969 185.210938 186.582031 Z M 185.210938 186.582031 " clip-rule="nonzero"/></clipPath><clipPath id="b65bfc073b"><path d="M 190 187 L 195 187 L 195 192 L 190 192 Z M 190 187 " clip-rule="nonzero"/></clipPath><clipPath id="5d803d3852"><path d="M 190.804688 186.625 L 194.804688 187.902344 L 193.527344 191.902344 L 189.527344 190.625 Z M 190.804688 186.625 " clip-rule="nonzero"/></clipPath><clipPath id="fd59eb33a1"><path d="M 192.804688 187.261719 C 191.699219 186.910156 190.515625 187.519531 190.164062 188.625 C 189.8125 189.730469 190.421875 190.910156 191.527344 191.261719 C 192.632812 191.617188 193.8125 191.007812 194.164062 189.902344 C 194.519531 188.796875 193.910156 187.613281 192.804688 187.261719 Z M 192.804688 187.261719 " clip-rule="nonzero"/></clipPath></defs><g fill="#000000" fill-opacity="1"><g transform="translate(133.625622, 204.966069)"><g><path d="M 37.796875 -35.953125 L 37.796875 0 L 29.421875 0 L 13.5625 -19.15625 L 13.5625 0 L 3.59375 0 L 3.59375 -35.953125 L 11.96875 -35.953125 L 27.84375 -16.796875 L 27.84375 -35.953125 Z M 37.796875 -35.953125 "/></g></g></g><g fill="#000000" fill-opacity="1"><g transform="translate(171.132844, 204.966069)"><g/></g></g><g fill="#000000" fill-opacity="1"><g transform="translate(182.175234, 204.966069)"><g/></g></g><g fill="#000000" fill-opacity="1"><g transform="translate(193.217624, 204.966069)"><g/></g></g><g fill="#000000" fill-opacity="1"><g transform="translate(204.264542, 204.966069)"><g><path d="M 37.796875 -35.953125 L 37.796875 0 L 29.421875 0 L 13.5625 -19.15625 L 13.5625 0 L 3.59375 0 L 3.59375 -35.953125 L 11.96875 -35.953125 L 27.84375 -16.796875 L 27.84375 -35.953125 Z M 37.796875 -35.953125 "/></g></g></g><g clip-path="url(#5b531bc652)"><path fill="#000000" d="M 178.851562 180.351562 L 201.265625 180.351562 L 201.265625 203.46875 L 178.851562 203.46875 Z M 178.851562 180.351562 " fill-opacity="1" fill-rule="nonzero"/></g><g clip-path="url(#af0dd95e69)"><g clip-path="url(#33c585f737)"><g clip-path="url(#e1eb51e411)"><path fill="#ffffff" d="M 178.847656 206.507812 L 187.949219 177.996094 L 202.316406 182.582031 L 193.21875 211.09375 Z M 178.847656 206.507812 " fill-opacity="1" fill-rule="nonzero"/></g></g></g><g clip-path="url(#b65bfc073b)"><g clip-path="url(#5d803d3852)"><g clip-path="url(#fd59eb33a1)"><path fill="#000000" d="M 190.804688 186.625 L 194.804688 187.902344 L 193.527344 191.902344 L 189.527344 190.625 Z M 190.804688 186.625 " fill-opacity="1" fill-rule="nonzero"/></g></g></g></svg>