<svg xmlns="http://www.w3.org/2000/svg" xmlns:xlink="http://www.w3.org/1999/xlink" width="500" zoomAndPan="magnify" viewBox="0 0 375 374.999991" height="500" preserveAspectRatio="xMidYMid meet" version="1.0"><defs><g/><clipPath id="c848e6bd7f"><path d="M 176.683594 181.226562 L 199.097656 181.226562 L 199.097656 204.328125 L 176.683594 204.328125 Z M 176.683594 181.226562 " clip-rule="nonzero"/></clipPath><clipPath id="f42cd91ab5"><path d="M 187 188 L 193 188 L 193 193 L 187 193 Z M 187 188 " clip-rule="nonzero"/></clipPath><clipPath id="debd59533c"><path d="M 188.636719 187.5 L 192.636719 188.777344 L 191.359375 192.777344 L 187.359375 191.5 Z M 188.636719 187.5 " clip-rule="nonzero"/></clipPath><clipPath id="11b571a976"><path d="M 190.636719 188.140625 C 189.53125 187.785156 188.347656 188.394531 187.996094 189.5 C 187.644531 190.605469 188.253906 191.789062 189.359375 192.140625 C 190.464844 192.492188 191.644531 191.882812 191.996094 190.777344 C 192.351562 189.671875 191.742188 188.492188 190.636719 188.140625 Z M 190.636719 188.140625 " clip-rule="nonzero"/></clipPath></defs><g fill="#000000" fill-opacity="1"><g transform="translate(243.533589, 169.148085)"><g><path d="M -37.796875 35.953125 L -37.796875 0 L -29.421875 0 L -13.5625 19.15625 L -13.5625 0 L -3.59375 0 L -3.59375 35.953125 L -11.96875 35.953125 L -27.84375 16.796875 L -27.84375 35.953125 Z M -37.796875 35.953125 "/></g></g></g><g fill="#000000" fill-opacity="1"><g transform="translate(206.026367, 169.148085)"><g/></g></g><g fill="#000000" fill-opacity="1"><g transform="translate(194.983977, 169.148085)"><g/></g></g><g fill="#000000" fill-opacity="1"><g transform="translate(183.941587, 169.148085)"><g/></g></g><g fill="#000000" fill-opacity="1"><g transform="translate(172.89467, 169.148085)"><g><path d="M -37.796875 35.953125 L -37.796875 0 L -29.421875 0 L -13.5625 19.15625 L -13.5625 0 L -3.59375 0 L -3.59375 35.953125 L -11.96875 35.953125 L -27.84375 16.796875 L -27.84375 35.953125 Z M -37.796875 35.953125 "/></g></g></g><g clip-path="url(#c848e6bd7f)"><path fill="#000000" d="M 176.683594 181.226562 L 199.097656 181.226562 L 199.097656 204.34375 L 176.683594 204.34375 Z M 176.683594 181.226562 " fill-opacity="1" fill-rule="nonzero"/></g><g clip-path="url(#f42cd91ab5)"><g clip-path="url(#debd59533c)"><g clip-path="url(#11b571a976)"><path fill="#000000" d="M 188.636719 187.5 L 192.636719 188.777344 L 191.359375 192.777344 L 187.359375 191.5 Z M 188.636719 187.5 " fill-opacity="1" fill-rule="nonzero"/></g></g></g></svg>