<svg xmlns="http://www.w3.org/2000/svg" xmlns:xlink="http://www.w3.org/1999/xlink" width="500" zoomAndPan="magnify" viewBox="0 0 375 374.999991" height="500" preserveAspectRatio="xMidYMid meet" version="1.0"><defs><g/><clipPath id="becd7b4c3b"><path d="M 176.292969 175.949219 L 198.707031 175.949219 L 198.707031 199.050781 L 176.292969 199.050781 Z M 176.292969 175.949219 " clip-rule="nonzero"/></clipPath><clipPath id="103a666dda"><path d="M 187 188 L 193 188 L 193 193 L 187 193 Z M 187 188 " clip-rule="nonzero"/></clipPath><clipPath id="253e5ed699"><path d="M 188.636719 187.5 L 192.636719 188.777344 L 191.359375 192.777344 L 187.359375 191.5 Z M 188.636719 187.5 " clip-rule="nonzero"/></clipPath><clipPath id="ac67be17bf"><path d="M 190.636719 188.140625 C 189.53125 187.785156 188.347656 188.394531 187.996094 189.5 C 187.644531 190.605469 188.253906 191.789062 189.359375 192.140625 C 190.464844 192.492188 191.644531 191.882812 191.996094 190.777344 C 192.351562 189.671875 191.742188 188.492188 190.636719 188.140625 Z M 190.636719 188.140625 " clip-rule="nonzero"/></clipPath></defs><g fill="#000000" fill-opacity="1"><g transform="translate(243.533589, 169.148203)"><g><path d="M -37.796875 35.953125 L -37.796875 0 L -29.421875 0 L -13.5625 19.15625 L -13.5625 0 L -3.59375 0 L -3.59375 35.953125 L -11.96875 35.953125 L -27.84375 16.796875 L -27.84375 35.953125 Z M -37.796875 35.953125 "/></g></g></g><g fill="#000000" fill-opacity="1"><g transform="translate(206.026367, 169.148203)"><g/></g></g><g fill="#000000" fill-opacity="1"><g transform="translate(194.983977, 169.148203)"><g/></g></g><g fill="#000000" fill-opacity="1"><g transform="translate(183.941587, 169.148203)"><g/></g></g><g fill="#000000" fill-opacity="1"><g transform="translate(172.89467, 169.148203)"><g><path d="M -37.796875 35.953125 L -37.796875 0 L -29.421875 0 L -13.5625 19.15625 L -13.5625 0 L -3.59375 0 L -3.59375 35.953125 L -11.96875 35.953125 L -27.84375 16.796875 L -27.84375 35.953125 Z M -37.796875 35.953125 "/></g></g></g><g clip-path="url(#becd7b4c3b)"><path fill="#000000" d="M 176.292969 175.949219 L 198.707031 175.949219 L 198.707031 199.066406 L 176.292969 199.066406 Z M 176.292969 175.949219 " fill-opacity="1" fill-rule="nonzero"/></g><g clip-path="url(#103a666dda)"><g clip-path="url(#253e5ed699)"><g clip-path="url(#ac67be17bf)"><path fill="#000000" d="M 188.636719 187.5 L 192.636719 188.777344 L 191.359375 192.777344 L 187.359375 191.5 Z M 188.636719 187.5 " fill-opacity="1" fill-rule="nonzero"/></g></g></g></svg>