<svg xmlns="http://www.w3.org/2000/svg" xmlns:xlink="http://www.w3.org/1999/xlink" width="500" zoomAndPan="magnify" viewBox="0 0 375 374.999991" height="500" preserveAspectRatio="xMidYMid meet" version="1.0"><defs><g/><clipPath id="28497b69ec"><path d="M 176.152344 181.226562 L 198.566406 181.226562 L 198.566406 204.328125 L 176.152344 204.328125 Z M 176.152344 181.226562 " clip-rule="nonzero"/></clipPath><clipPath id="d38e6fa8de"><path d="M 187 188 L 193 188 L 193 193 L 187 193 Z M 187 188 " clip-rule="nonzero"/></clipPath><clipPath id="f4564d7eca"><path d="M 188.636719 187.5 L 192.636719 188.777344 L 191.359375 192.777344 L 187.359375 191.5 Z M 188.636719 187.5 " clip-rule="nonzero"/></clipPath><clipPath id="c8bd450128"><path d="M 190.636719 188.140625 C 189.53125 187.785156 188.347656 188.394531 187.996094 189.5 C 187.644531 190.605469 188.253906 191.789062 189.359375 192.140625 C 190.464844 192.492188 191.644531 191.882812 191.996094 190.777344 C 192.351562 189.671875 191.742188 188.492188 190.636719 188.140625 Z M 190.636719 188.140625 " clip-rule="nonzero"/></clipPath><clipPath id="5c66667602"><path d="M 205.074219 177.128906 L 219.835938 177.128906 L 219.835938 191.878906 L 205.074219 191.878906 Z M 205.074219 177.128906 " clip-rule="nonzero"/></clipPath><clipPath id="c8376bf896"><path d="M 139.824219 177.128906 L 154.585938 177.128906 L 154.585938 191.878906 L 139.824219 191.878906 Z M 139.824219 177.128906 " clip-rule="nonzero"/></clipPath></defs><g fill="#000000" fill-opacity="1"><g transform="translate(137.113457, 205.842809)"><g><path d="M 21.265625 -28.296875 C 24.722656 -28.296875 27.503906 -27.269531 29.609375 -25.21875 C 31.710938 -23.164062 32.765625 -20.066406 32.765625 -15.921875 L 32.765625 0 L 23.015625 0 L 23.015625 -14.328125 C 23.015625 -18.128906 21.488281 -20.03125 18.4375 -20.03125 C 16.757812 -20.03125 15.414062 -19.484375 14.40625 -18.390625 C 13.394531 -17.296875 12.890625 -15.648438 12.890625 -13.453125 L 12.890625 0 L 3.140625 0 L 3.140625 -27.84375 L 12.421875 -27.84375 L 12.421875 -24.8125 C 13.523438 -25.9375 14.828125 -26.796875 16.328125 -27.390625 C 17.835938 -27.992188 19.484375 -28.296875 21.265625 -28.296875 Z M 21.265625 -28.296875 "/></g></g></g><g fill="#000000" fill-opacity="1"><g transform="translate(168.964979, 205.842809)"><g/></g></g><g fill="#000000" fill-opacity="1"><g transform="translate(180.00737, 205.842809)"><g/></g></g><g fill="#000000" fill-opacity="1"><g transform="translate(191.04976, 205.842809)"><g/></g></g><g fill="#000000" fill-opacity="1"><g transform="translate(202.096677, 205.842809)"><g><path d="M 21.265625 -28.296875 C 24.722656 -28.296875 27.503906 -27.269531 29.609375 -25.21875 C 31.710938 -23.164062 32.765625 -20.066406 32.765625 -15.921875 L 32.765625 0 L 23.015625 0 L 23.015625 -14.328125 C 23.015625 -18.128906 21.488281 -20.03125 18.4375 -20.03125 C 16.757812 -20.03125 15.414062 -19.484375 14.40625 -18.390625 C 13.394531 -17.296875 12.890625 -15.648438 12.890625 -13.453125 L 12.890625 0 L 3.140625 0 L 3.140625 -27.84375 L 12.421875 -27.84375 L 12.421875 -24.8125 C 13.523438 -25.9375 14.828125 -26.796875 16.328125 -27.390625 C 17.835938 -27.992188 19.484375 -28.296875 21.265625 -28.296875 Z M 21.265625 -28.296875 "/></g></g></g><g clip-path="url(#28497b69ec)"><path fill="#000000" d="M 176.152344 181.226562 L 198.566406 181.226562 L 198.566406 204.34375 L 176.152344 204.34375 Z M 176.152344 181.226562 " fill-opacity="1" fill-rule="nonzero"/></g><g clip-path="url(#d38e6fa8de)"><g clip-path="url(#f4564d7eca)"><g clip-path="url(#c8bd450128)"><path fill="#000000" d="M 188.636719 187.5 L 192.636719 188.777344 L 191.359375 192.777344 L 187.359375 191.5 Z M 188.636719 187.5 " fill-opacity="1" fill-rule="nonzero"/></g></g></g><g clip-path="url(#5c66667602)"><path fill="#ffffff" d="M 205.074219 177.128906 L 219.824219 177.128906 L 219.824219 191.878906 L 205.074219 191.878906 Z M 205.074219 177.128906 " fill-opacity="1" fill-rule="nonzero"/></g><g clip-path="url(#c8376bf896)"><path fill="#ffffff" d="M 139.824219 177.128906 L 154.574219 177.128906 L 154.574219 191.878906 L 139.824219 191.878906 Z M 139.824219 177.128906 " fill-opacity="1" fill-rule="nonzero"/></g></svg>