<svg xmlns="http://www.w3.org/2000/svg" xmlns:xlink="http://www.w3.org/1999/xlink" width="500" zoomAndPan="magnify" viewBox="0 0 375 374.999991" height="500" preserveAspectRatio="xMidYMid meet" version="1.0"><defs><g/><clipPath id="42e59f20de"><path d="M 102.246094 212.230469 L 159.660156 212.230469 L 159.660156 218.886719 L 102.246094 218.886719 Z M 102.246094 212.230469 " clip-rule="nonzero"/></clipPath><clipPath id="91f5419679"><path d="M 218.195312 155 L 268.695312 155 L 268.695312 164.15625 L 218.195312 164.15625 Z M 218.195312 155 " clip-rule="nonzero"/></clipPath></defs><g clip-path="url(#42e59f20de)"><path fill="#000000" d="M 102.246094 212.230469 L 159.667969 212.230469 L 159.667969 218.886719 L 102.246094 218.886719 Z M 102.246094 212.230469 " fill-opacity="1" fill-rule="nonzero"/></g><g clip-path="url(#91f5419679)"><path fill="#000000" d="M 218.195312 155 L 268.699219 155 L 268.699219 164.15625 L 218.195312 164.15625 Z M 218.195312 155 " fill-opacity="1" fill-rule="nonzero"/></g><g fill="#000000" fill-opacity="1"><g transform="translate(108.457065, 193.783992)"><g><path d="M 5.03125 0 L 5.03125 -41.984375 L 13.140625 -41.984375 L 31.671875 -16.4375 L 31.671875 -41.984375 L 41.15625 -41.984375 L 41.15625 0 L 33.046875 0 L 14.515625 -25.734375 L 14.515625 0 Z M 5.03125 0 "/></g></g></g><g fill="#000000" fill-opacity="1"><g transform="translate(167.06399, 193.783992)"><g><path d="M 0.546875 0 L 17.21875 -41.984375 L 26.578125 -41.984375 L 43.25 0 L 33.046875 0 L 30.234375 -7.265625 L 13.5625 -7.265625 L 10.734375 0 Z M 16.015625 -14.75 L 27.828125 -14.75 L 21.890625 -30.109375 Z M 16.015625 -14.75 "/></g></g></g><g fill="#000000" fill-opacity="1"><g transform="translate(220.346577, 218.898092)"><g><path d="M 5.03125 0 L 5.03125 -41.984375 L 13.140625 -41.984375 L 31.671875 -16.4375 L 31.671875 -41.984375 L 41.15625 -41.984375 L 41.15625 0 L 33.046875 0 L 14.515625 -25.734375 L 14.515625 0 Z M 5.03125 0 "/></g></g></g></svg>