<svg xmlns="http://www.w3.org/2000/svg" xmlns:xlink="http://www.w3.org/1999/xlink" width="500" zoomAndPan="magnify" viewBox="0 0 375 374.999991" height="500" preserveAspectRatio="xMidYMid meet" version="1.0"><defs><g/><clipPath id="764a810df7"><path d="M 203.273438 168.296875 L 212.542969 168.296875 L 212.542969 180.890625 L 203.273438 180.890625 Z M 203.273438 168.296875 " clip-rule="nonzero"/></clipPath><clipPath id="74a74ff692"><path d="M 162.765625 168.296875 L 172.03125 168.296875 L 172.03125 180.890625 L 162.765625 180.890625 Z M 162.765625 168.296875 " clip-rule="nonzero"/></clipPath><clipPath id="de32ee1e3a"><path d="M 176.292969 180.890625 L 198.707031 180.890625 L 198.707031 206.542969 L 176.292969 206.542969 Z M 176.292969 180.890625 " clip-rule="nonzero"/></clipPath></defs><g fill="#000000" fill-opacity="1"><g transform="translate(147.073164, 206.249986)"><g><path d="M 24.421875 0 L 16.296875 0 L 16.296875 -31.140625 C 16.296875 -31.453125 16.1875 -31.722656 15.96875 -31.953125 C 15.757812 -32.191406 15.503906 -32.3125 15.203125 -32.3125 L 12.0625 -32.3125 C 11.75 -32.3125 11.488281 -32.191406 11.28125 -31.953125 C 11.070312 -31.722656 10.96875 -31.453125 10.96875 -31.140625 L 10.96875 0 L 2.84375 0 L 2.84375 -30.453125 C 2.84375 -35.554688 5.238281 -38.109375 10.03125 -38.109375 L 17.21875 -38.109375 C 22.019531 -38.109375 24.421875 -35.554688 24.421875 -30.453125 Z M 24.421875 0 "/></g></g></g><g fill="#000000" fill-opacity="1"><g transform="translate(175.209881, 206.249986)"><g/></g></g><g fill="#000000" fill-opacity="1"><g transform="translate(188.085103, 206.249986)"><g/></g></g><g fill="#000000" fill-opacity="1"><g transform="translate(200.967691, 206.249986)"><g><path d="M 24.421875 0 L 16.296875 0 L 16.296875 -31.140625 C 16.296875 -31.453125 16.1875 -31.722656 15.96875 -31.953125 C 15.757812 -32.191406 15.503906 -32.3125 15.203125 -32.3125 L 12.0625 -32.3125 C 11.75 -32.3125 11.488281 -32.191406 11.28125 -31.953125 C 11.070312 -31.722656 10.96875 -31.453125 10.96875 -31.140625 L 10.96875 0 L 2.84375 0 L 2.84375 -30.453125 C 2.84375 -35.554688 5.238281 -38.109375 10.03125 -38.109375 L 17.21875 -38.109375 C 22.019531 -38.109375 24.421875 -35.554688 24.421875 -30.453125 Z M 24.421875 0 "/></g></g></g><g clip-path="url(#764a810df7)"><path fill="#ffffff" d="M 203.273438 168.296875 L 212.542969 168.296875 L 212.542969 180.898438 L 203.273438 180.898438 Z M 203.273438 168.296875 " fill-opacity="1" fill-rule="nonzero"/></g><g clip-path="url(#74a74ff692)"><path fill="#ffffff" d="M 162.765625 168.296875 L 172.03125 168.296875 L 172.03125 180.898438 L 162.765625 180.898438 Z M 162.765625 168.296875 " fill-opacity="1" fill-rule="nonzero"/></g><g clip-path="url(#de32ee1e3a)"><path fill="#000000" d="M 176.292969 180.890625 L 198.707031 180.890625 L 198.707031 206.546875 L 176.292969 206.546875 Z M 176.292969 180.890625 " fill-opacity="1" fill-rule="nonzero"/></g></svg>